<svg width="139" height="41" viewBox="0 0 139 41" fill="none" xmlns="http://www.w3.org/2000/svg">
  <path d="M42.3141 37.1292C42.0472 37.9546 41.2786 38.5139 40.4111 38.5139H31.1837C30.2586 38.5139 29.4543 37.8795 29.2387 36.98L25.6159 21.8608C25.6013 21.7997 25.5467 21.7567 25.4839 21.7567C25.4211 21.7567 25.3665 21.7997 25.3519 21.8608L21.7291 36.98C21.5135 37.8795 20.7092 38.5139 19.7841 38.5139H10.6638C9.79625 38.5139 9.02764 37.9546 8.76077 37.1292L0.845535 12.6472C0.427924 11.3555 1.39104 10.0319 2.74855 10.0319H10.5184C11.4451 10.0319 12.2505 10.6686 12.4644 11.5704L16.0369 26.6328C16.0512 26.6931 16.105 26.7356 16.167 26.7356C16.2302 26.7356 16.2848 26.6914 16.2979 26.6296L19.4734 11.618C19.669 10.6934 20.485 10.0319 21.4301 10.0319H30.0731C31.0181 10.0319 31.8342 10.6934 32.0298 11.618L35.2053 26.6296C35.2184 26.6914 35.2729 26.7356 35.3361 26.7356C35.3981 26.7356 35.452 26.6931 35.4663 26.6328L39.0388 11.5704C39.2526 10.6686 40.058 10.0319 40.9848 10.0319H48.3263C49.6838 10.0319 50.6469 11.3555 50.2293 12.6472L42.3141 37.1292Z" fill="white"/>
  <path d="M69.9684 38.5139C69.3708 38.5139 68.789 38.2418 68.6186 37.669C68.3895 36.8992 68.275 35.7532 68.275 34.2309C67.6326 35.73 66.5083 36.9435 64.9022 37.8715C63.3317 38.7638 61.4044 39.2099 59.1201 39.2099C57.4783 39.2099 55.9257 38.8887 54.4623 38.2462C52.999 37.5681 51.8033 36.6044 50.8753 35.3552C49.983 34.0703 49.5369 32.5891 49.5369 30.9116C49.5369 28.0205 50.4649 25.8612 52.3208 24.4335C54.1768 23.0059 56.9965 22.0065 60.7798 21.4354C62.8499 21.1142 64.4025 20.8287 65.4376 20.5788C66.4726 20.2933 67.2043 19.9899 67.6326 19.6687C68.0609 19.3475 68.275 18.9192 68.275 18.3838C68.275 17.67 67.9717 17.1346 67.3649 16.7777C66.7581 16.385 65.9908 16.1887 65.0628 16.1887C63.5466 16.1887 62.407 16.7934 61.6441 18.0027C61.1463 18.7919 60.3341 19.4033 59.4038 19.3309L52.9466 18.8291C51.7379 18.7352 50.8731 17.5823 51.3604 16.4722C52.2069 14.5438 53.5799 12.9859 55.4796 11.7987C58.0494 10.1568 61.2973 9.33594 65.2234 9.33594C69.7919 9.33594 73.2719 10.2104 75.6632 11.9593C78.0903 13.6725 79.3038 16.1887 79.3038 19.5081V33.4814C79.3038 34.4618 79.3038 35.4096 79.3259 36.3937C79.3517 37.5445 78.4399 38.5139 77.2888 38.5139H69.9684ZM68.275 27.6993C68.275 26.6785 67.2122 25.913 66.2194 26.1504C65.675 26.2806 65.0397 26.4221 64.3133 26.575C61.9576 27.039 60.7798 28.1455 60.7798 29.8944C60.7798 30.7153 61.0475 31.3756 61.5828 31.8753C62.1182 32.3749 62.8142 32.6248 63.6708 32.6248C64.7773 32.6248 65.8123 32.2143 66.776 31.3934C67.7754 30.5368 68.275 29.3055 68.275 27.6993Z" fill="white"/>
  <path d="M121.716 39.9775C125.974 39.9775 129.929 38.5961 132.825 35.9619C135.728 33.3218 137.534 29.4529 137.534 24.5527C137.534 19.6255 135.729 15.729 132.827 13.0677C129.931 10.4119 125.975 9.01562 121.716 9.01562C117.457 9.01562 113.501 10.4119 110.605 13.0677C107.703 15.729 105.898 19.6255 105.898 24.5527C105.898 29.4529 107.704 33.3218 110.607 35.9619C113.503 38.5961 117.458 39.9775 121.716 39.9775ZM121.716 35.9476C120.913 35.9476 120.266 35.7366 119.734 35.3284C119.195 34.9151 118.736 34.271 118.365 33.3443C117.617 31.4752 117.278 28.5839 117.278 24.5527C117.278 20.5202 117.603 17.5997 118.345 15.7012C118.713 14.7598 119.172 14.1023 119.713 13.6796C120.248 13.2626 120.9 13.0455 121.716 13.0455C122.532 13.0455 123.184 13.2626 123.719 13.6796C124.26 14.1023 124.719 14.7598 125.087 15.7012C125.829 17.5997 126.154 20.5202 126.154 24.5527C126.154 28.5857 125.829 31.4767 125.088 33.3457C124.72 34.2719 124.263 34.9151 123.723 35.3278C123.188 35.7357 122.535 35.9476 121.716 35.9476Z" fill="white" stroke="white" stroke-linejoin="round"/>
  <path d="M94.6441 39.2456C98.5044 39.2456 102.072 37.0445 104.235 35.0614C104.742 34.5959 104.834 33.8588 104.526 33.2775L104.223 32.7077C103.81 31.9299 102.87 31.7095 102.137 31.9999C101.518 32.2449 100.746 32.4472 99.9249 32.4472C98.6244 32.4472 97.6971 32.0636 97.082 31.3352C96.4534 30.5909 96.0792 29.4034 96.0792 27.6505V14.0073C96.0792 13.72 96.3121 13.4872 96.5994 13.4872H101.49C102.33 13.4872 103.01 12.8066 103.01 11.967V10.6621C103.01 9.8225 102.33 9.1419 101.49 9.1419H96.5994C96.3121 9.1419 96.0792 8.90902 96.0792 8.62175V2.02015C96.0792 1.18059 95.3986 0.5 94.5591 0.5H94.4478C94.0565 0.5 93.6811 0.651089 93.3984 0.919571C89.8381 4.30194 86.4013 7.25247 82.1185 10.3814C81.7265 10.6678 81.4922 11.1244 81.4922 11.6124V11.967C81.4922 12.8066 82.1728 13.4872 83.0123 13.4872H84.9326C85.2199 13.4872 85.4528 13.72 85.4528 14.0073V29.0444C85.4528 32.4547 86.2228 35.025 87.8061 36.7428C89.3968 38.4686 91.7258 39.2456 94.6441 39.2456Z" fill="white" stroke="white" stroke-linejoin="round"/>
</svg>